<svg width="49" height="48" viewBox="0 0 49 48" fill="none" xmlns="http://www.w3.org/2000/svg">
<path d="M14.8883 34.615C13.5073 35.7884 12.064 36.3147 10.5583 36.194C9.05229 36.0734 7.74812 35.547 6.64579 34.615C5.54312 33.6834 4.80679 32.4832 4.43679 31.0145C4.06679 29.5462 4.35178 28.0302 5.29178 26.4665L9.33179 19.712C8.43979 18.988 7.73112 18.0929 7.20579 17.0265C6.68045 15.9602 6.41778 14.8159 6.41778 13.5935C6.41778 11.3992 7.19345 9.52487 8.74478 7.97054C10.2961 6.4162 12.1668 5.63904 14.3568 5.63904C16.5381 5.63904 18.4066 6.41687 19.9623 7.97254C21.5183 9.52854 22.2963 11.399 22.2963 13.584C22.2963 15.7694 21.5183 17.6399 19.9623 19.1955C18.4066 20.7515 16.5381 21.5295 14.3568 21.5295C14.0095 21.5295 13.6621 21.5065 13.3148 21.4605C12.9671 21.4145 12.6425 21.3415 12.3408 21.2415L8.18828 28.2195C7.74562 28.9542 7.60645 29.6704 7.77079 30.368C7.93512 31.0657 8.28162 31.632 8.81028 32.067C9.33895 32.502 9.95662 32.7444 10.6633 32.794C11.37 32.8437 12.0406 32.5972 12.6753 32.0545L34.4568 13.3465C35.8461 12.1655 37.302 11.625 38.8243 11.725C40.347 11.825 41.6575 12.345 42.7558 13.285C43.8545 14.2247 44.5848 15.438 44.9468 16.925C45.3088 18.4117 45.0238 19.9312 44.0918 21.4835L40.1133 28.25C41.0056 28.966 41.7145 29.8562 42.2398 30.9205C42.7651 31.9852 43.0278 33.1297 43.0278 34.354C43.0278 36.5457 42.2448 38.4179 40.6788 39.9705C39.1128 41.5229 37.23 42.299 35.0303 42.299C32.8306 42.299 30.9653 41.5234 29.4343 39.972C27.903 38.4207 27.1373 36.55 27.1373 34.36C27.1373 32.1787 27.903 30.3102 29.4343 28.7545C30.9653 27.1985 32.8313 26.4205 35.0323 26.4205C35.3673 26.4205 35.6988 26.4352 36.0268 26.4645C36.3548 26.4939 36.6808 26.5545 37.0048 26.6465L41.1568 19.7305C41.5998 19.0035 41.735 18.2897 41.5623 17.589C41.3896 16.888 41.039 16.3219 40.5103 15.8905C39.9813 15.4592 39.3638 15.2185 38.6578 15.1685C37.9515 15.1185 37.289 15.3609 36.6703 15.8955L14.8883 34.615ZM14.3648 18.111C15.6118 18.111 16.6776 17.6679 17.5623 16.7815C18.4473 15.8955 18.8898 14.8272 18.8898 13.5765C18.8898 12.3255 18.4446 11.2597 17.5543 10.379C16.6643 9.49804 15.594 9.05754 14.3433 9.05754C13.0923 9.05754 12.0265 9.50054 11.1458 10.3865C10.2648 11.2722 9.82428 12.3427 9.82428 13.598C9.82428 14.845 10.2673 15.9089 11.1533 16.7895C12.039 17.6705 13.1095 18.111 14.3648 18.111ZM35.0393 38.8925C36.3 38.8925 37.3768 38.4495 38.2698 37.5635C39.1628 36.6779 39.6093 35.6074 39.6093 34.352C39.6093 33.105 39.1628 32.0392 38.2698 31.1545C37.3771 30.2695 36.2983 29.827 35.0333 29.827C33.7766 29.827 32.7163 30.2722 31.8523 31.1625C30.988 32.0525 30.5558 33.1229 30.5558 34.3735C30.5558 35.6245 30.988 36.6904 31.8523 37.571C32.7163 38.452 33.7786 38.8925 35.0393 38.8925Z" fill="#0C0802"/>
</svg>
