<svg width="48" height="48" viewBox="0 0 48 48" fill="none" xmlns="http://www.w3.org/2000/svg">
<path d="M17.4999 37.4045H30.4999C30.9249 37.4045 31.2813 37.2598 31.5689 36.9705C31.8563 36.6815 31.9999 36.3231 31.9999 35.8955C31.9999 35.4681 31.8563 35.1128 31.5689 34.8295C31.2813 34.5461 30.9249 34.4045 30.4999 34.4045H17.4999C17.0749 34.4045 16.7188 34.549 16.4314 34.838C16.1438 35.1273 15.9999 35.4856 15.9999 35.913C15.9999 36.3406 16.1438 36.6961 16.4314 36.9795C16.7188 37.2628 17.0749 37.4045 17.4999 37.4045ZM17.4999 31.4045H30.4999C30.9249 31.4045 31.2813 31.2598 31.5689 30.9705C31.8563 30.6815 31.9999 30.3231 31.9999 29.8955C31.9999 29.4681 31.8563 29.1128 31.5689 28.8295C31.2813 28.5461 30.9249 28.4045 30.4999 28.4045H17.4999C17.0749 28.4045 16.7188 28.549 16.4314 28.838C16.1438 29.1273 15.9999 29.4856 15.9999 29.913C15.9999 30.3406 16.1438 30.6961 16.4314 30.9795C16.7188 31.2628 17.0749 31.4045 17.4999 31.4045ZM23.9999 12.5075C23.4999 11.8741 22.9833 11.3991 22.4499 11.0825C21.9166 10.7658 21.2333 10.6075 20.3999 10.6075C19.3363 10.6075 18.4204 10.9916 17.6524 11.76C16.8841 12.528 16.4999 13.4438 16.4999 14.5075C16.4999 16.2255 17.2736 17.7955 18.8209 19.2175C20.3686 20.6391 21.7178 21.8586 22.8684 22.876C23.1848 23.1826 23.5644 23.336 24.0074 23.336C24.4501 23.336 24.8248 23.1826 25.1314 22.876C26.2821 21.8586 27.6313 20.6286 29.1789 19.186C30.7263 17.7433 31.4999 16.1855 31.4999 14.5125C31.4999 13.4455 31.1158 12.528 30.3474 11.76C29.5794 10.9916 28.6636 10.6075 27.5999 10.6075C26.7666 10.6075 26.0833 10.7658 25.5499 11.0825C25.0166 11.3991 24.4999 11.8741 23.9999 12.5075ZM36.8924 44.299H11.1074C10.1874 44.299 9.38976 43.9611 8.71443 43.2855C8.03876 42.6101 7.70093 41.8125 7.70093 40.8925V7.10746C7.70093 6.18413 8.03876 5.38363 8.71443 4.70596C9.38976 4.02796 10.1874 3.68896 11.1074 3.68896H36.8924C37.8158 3.68896 38.6163 4.02796 39.2939 4.70596C39.9719 5.38363 40.3109 6.18413 40.3109 7.10746V40.8925C40.3109 41.8125 39.9719 42.6101 39.2939 43.2855C38.6163 43.9611 37.8158 44.299 36.8924 44.299ZM11.1074 40.8925H36.8924V7.10746H11.1074V40.8925Z" fill="#0C0802"/>
</svg>
