<svg width="49" height="48" viewBox="0 0 49 48" fill="none" xmlns="http://www.w3.org/2000/svg">
<path d="M6.20166 37.726V10.274C6.20166 9.66429 6.45649 9.19896 6.96616 8.87796C7.47616 8.55696 8.02099 8.50846 8.60066 8.73246L33.3787 19.1945C33.88 19.4158 34.1943 19.7348 34.3217 20.1515C34.449 20.5678 34.4253 20.9713 34.2507 21.362C34.068 21.7526 33.792 22.0391 33.4227 22.2215C33.0537 22.4041 32.6198 22.3875 32.1212 22.1715L9.46466 12.6315V20.7685L17.0617 22.7565C17.368 22.8505 17.5958 23.017 17.7452 23.256C17.8945 23.4946 17.9692 23.7463 17.9692 24.011C17.9692 24.2756 17.8862 24.5185 17.7202 24.7395C17.5542 24.9605 17.318 25.1118 17.0117 25.1935L9.46466 27.1315V35.2185L20.4712 30.6285C20.9778 30.4125 21.4305 30.4066 21.8292 30.611C22.2275 30.8153 22.518 31.1116 22.7007 31.5C22.8753 31.8986 22.892 32.3136 22.7507 32.745C22.6097 33.1766 22.2857 33.5048 21.7787 33.7295L8.58866 39.2555C8.01699 39.4875 7.47616 39.443 6.96616 39.122C6.45649 38.801 6.20166 38.3356 6.20166 37.726ZM34.9647 44C32.3727 44 30.1413 43.0766 28.2707 41.23C26.4 39.3833 25.4647 37.15 25.4647 34.53C25.4647 31.91 26.4 29.6666 28.2707 27.8C30.1413 25.9333 32.3727 25 34.9647 25C37.5647 25 39.798 25.9311 41.6647 27.7935C43.5313 29.6555 44.4647 31.9076 44.4647 34.55C44.4647 37.1643 43.5313 39.393 41.6647 41.236C39.798 43.0786 37.5647 44 34.9647 44ZM35.8867 34.026V29.038C35.8867 28.757 35.782 28.5101 35.5727 28.2975C35.3637 28.0848 35.1145 27.9785 34.8252 27.9785C34.5355 27.9785 34.2763 28.0898 34.0477 28.3125C33.819 28.5351 33.7047 28.7936 33.7047 29.088V34.34C33.7047 34.5576 33.744 34.7656 33.8227 34.964C33.9013 35.1623 34.032 35.3521 34.2147 35.5335L37.6787 38.998C37.8903 39.206 38.1552 39.31 38.4732 39.31C38.7915 39.31 39.0587 39.1976 39.2747 38.973C39.4827 38.7403 39.5783 38.4648 39.5617 38.1465C39.545 37.8285 39.4327 37.5596 39.2247 37.34L35.8867 34.026Z" fill="#0C0802"/>
</svg>
